<?xml version="1.0" encoding="UTF-8"?> <!-- Generator: Adobe Illustrator 26.0.3, SVG Export Plug-In . SVG Version: 6.00 Build 0) --> <svg xmlns="http://www.w3.org/2000/svg" xmlns:xlink="http://www.w3.org/1999/xlink" id="Layer_1" x="0px" y="0px" viewBox="0 0 35 34.3" style="enable-background:new 0 0 35 34.3;" xml:space="preserve"> <style type="text/css"> .st0{fill:#FFFFFF;} .st1{fill:none;} </style> <g transform="translate(0.449 0)"> <path class="st0" d="M26.6,16.4c0-0.8-0.6-1.4-1.4-1.4h-2.3c-0.8,0-1.4,0.6-1.4,1.4V25c-0.3-0.1-0.6-0.2-1-0.2 c-0.5-0.1-0.9-0.6-0.9-1.1V12.9c0-0.8-0.6-1.4-1.4-1.4H16c-0.8,0-1.4,0.6-1.4,1.4v10l-1.1-0.5c-0.4-0.2-0.7-0.6-0.7-1.1V9.5 c0-0.8-0.6-1.4-1.4-1.4H9.2c-0.8,0-1.4,0.6-1.4,1.4c0,0,0,0,0,0v9.8c-2.1-1.5-4-3.2-5.6-5.3c-0.5-0.6-0.6-1.4-0.3-2.2 c2.8-8.5,12-13.1,20.4-10.3s13.1,12,10.3,20.4c0,0.1-0.1,0.3-0.2,0.4c-0.3,1-0.7,1.9-1.3,2.7c-0.4,0.7-1.2,1.1-1.9,1 c-0.4,0-1-0.1-1.6-0.2c-0.6-0.1-1-0.6-1-1.1L26.6,16.4z"></path> <path class="st0" d="M26.7,30.2c-7.2,5.3-17.3,3.7-22.6-3.6c0,0,0,0,0,0c-2-2.8-3.1-6.1-3.1-9.5C1,16.8,1,16.4,1,16 C6.9,24.9,17.8,29,26.7,30.2"></path> <rect x="0.6" y="1.3" class="st1" width="33" height="32.1"></rect> </g> </svg> 