<?xml version="1.0" encoding="UTF-8"?> <!-- Generator: Adobe Illustrator 26.0.3, SVG Export Plug-In . SVG Version: 6.00 Build 0) --> <svg xmlns="http://www.w3.org/2000/svg" xmlns:xlink="http://www.w3.org/1999/xlink" id="Layer_1" x="0px" y="0px" viewBox="0 0 30.2 34.3" style="enable-background:new 0 0 30.2 34.3;" xml:space="preserve"> <style type="text/css"> .st0{clip-path:url(#SVGID_00000178163841614835628760000010641493035668918691_);} .st1{fill-rule:evenodd;clip-rule:evenodd;fill:#FFFFFF;} </style> <g> <defs> <rect id="SVGID_1_" x="1.3" y="1.5" width="27.5" height="31.3"></rect> </defs> <clipPath id="SVGID_00000021089647494343865060000013897191269386235823_"> <use xlink:href="#SVGID_1_" style="overflow:visible;"></use> </clipPath> <g transform="translate(0 0)" style="clip-path:url(#SVGID_00000021089647494343865060000013897191269386235823_);"> <path class="st1" d="M9.7,4.3c1.4,0.2,2.7,0.9,3.7,1.9c0.7,0.7,1.3,1.4,1.8,2.2c1.8,2.5,2.6,3.1,4.1,3.6c1.1,0.3,2.3,0.5,3.4,0.5 c1.8,0.1,2.5,0.2,3.1,0.7c0.4,0.3,0.7,0.6,0.9,1l0.2,0.2l0-0.3c-0.3-1.4-0.9-2.6-1.8-3.7l-0.2-0.2l-0.1,0.4 c-0.2,1-0.7,1.7-1.1,1.7c-0.3,0-0.6-0.3-0.6-0.6c0-0.1,0-0.2,0.1-0.3c0.3-0.6,0.4-1.4,0.2-2.1c0-0.2-0.1-0.4-0.1-0.5 c-0.4-0.3-0.9-0.6-1.4-0.8c-1.9-0.8-4-1.1-6-0.8l-0.5,0.1L15.1,7c-1-1.3-2.3-2.2-3.9-2.6C10.6,4.2,10,4.2,9.4,4.2 C9.3,4.2,9.3,4.3,9.7,4.3L9.7,4.3z"></path> <path class="st1" d="M21.6,6.9c0.3,0.1,0.8,0.4,1.1,0.6c1.1,0.7,1.3,1.1,1.3,2.7c0,0.4,0,0.8-0.1,1.2c-0.1,0.3-0.1,0.4,0,0.1 c0.3-0.6,0.4-1.3,0.4-1.9c0-0.6,0-0.7,0.1-0.7c0.1-0.1,0.1-0.1,0.2,0c0.5,0.4,1,0.8,1.5,1.2l0.3,0.3l-0.3-0.4 c-0.2-0.2-0.7-0.8-1.1-1.2c-0.9-0.9-1-1-1.1-1.9c-0.1-0.6-0.1-1.1,0.1-1.7c0.1-0.2,0.1-0.3,0.1-0.3C24.1,4.9,24,5,24,5.1 c-0.2,0.5-0.3,1.1-0.3,1.6c0,0.5-0.1,0.6-0.1,0.7c-0.1,0-0.2,0-0.8-0.3c-0.5-0.2-1-0.4-1.6-0.5C21.3,6.8,21.5,6.9,21.6,6.9 L21.6,6.9z"></path> <path class="st1" d="M12.7,11.2c0.5,0,0.6-0.1,0.4-0.4c-0.3-0.4-0.6-0.9-0.8-1.4c-0.1-0.2-0.2-0.7-0.3-1.2 c-0.3-1.6-0.7-2.2-1.4-2.6c-0.4-0.2-0.8-0.4-1.2-0.5l-0.2,0l0,0.4c-0.1,1.5,0.4,2.9,1.2,4.1C11,10.4,11.8,10.9,12.7,11.2 L12.7,11.2z"></path> <path class="st1" d="M28.8,18.7c-0.4-2.1-1.9-3.9-4-4.4c-0.9-0.3-1.9-0.5-2.9-0.6c-2.3-0.3-3.2-0.6-3.9-1.2 c-0.2-0.1-0.3-0.2-0.3-0.2c0,0,0,0.3,0,0.6c0,2.2,1.3,3.5,5,5.1c2.5,1,3.5,1.5,4.3,2.2c0.6,0.5,1,1.3,1.1,2.1c0,0.2,0,0.2,0.1,0.2 c0.3-0.4,0.5-0.9,0.6-1.4C28.9,20.3,28.9,19.5,28.8,18.7"></path> <path class="st1" d="M17.6,22.3c-0.5,0.2-1.1,0.3-1.7,0.3c-1,0.1-1.9,0.4-2.8,0.8c-0.4,0.2-0.7,0.4-1,0.6c0,0,0.1,0,0.2-0.1 c1-0.3,2.1-0.5,3.2-0.5c0.6,0,1.2-0.1,1.4-0.1c1.1-0.1,2.1-0.5,2.8-1.3c0.4-0.4,0.6-0.8,0.8-1.3c0.1-0.3,0.2-0.7,0.1-1 c0-0.4,0-0.7-0.1-1.1c-0.1-0.4-0.3-0.8-0.6-1.1l-0.2-0.2l0.1,0.3c0.1,0.3,0.1,0.5,0.2,0.8C20.4,20.2,19.3,21.9,17.6,22.3 L17.6,22.3z"></path> <path class="st1" d="M26.7,21.7c-0.8-0.9-1.9-1.7-3-2.2c-1.2-0.7-1.7-0.9-1.9-1.1c-0.1-0.1-0.2-0.1-0.3-0.1c0,0-0.1,0.1-0.1,0.2 c-0.3,1-0.1,2.1,0.3,3.1c0.4,0.9,1,1.7,1.5,2.5c0.6,0.8,1.1,1.8,1.5,2.7c0.3,1,0.3,2-0.2,2.9c-0.1,0.1-0.1,0.3-0.2,0.4 c0.1-0.1,0.3-0.1,0.4-0.2c1.4-0.8,2.4-2.1,2.7-3.7c0.1-0.7,0.2-1.5,0.1-2.3C27.6,23.2,27.2,22.4,26.7,21.7L26.7,21.7z"></path> <path class="st1" d="M21.7,32c-0.8,0.4-1.8,0.4-2.6-0.1c-0.4-0.4-0.7-0.9-0.8-1.5c0-0.1-0.1-0.6-0.2-1.2c-0.1-0.9-0.4-1.8-0.9-2.6 c-0.6-0.8-1.4-1.3-2.4-1.5c-0.8-0.2-1.6-0.2-2.4-0.1c-1.7,0.3-3.3,1.1-4.7,2.3l-0.4,0.4l0.4,0.1c1.5,0.1,2.8,0.8,3.7,1.9 c0.4,0.5,1,0.9,1.6,1.1c0.9,0.3,1.8-0.2,2.1-1c0.1-0.4,0.1-0.9,0-1.3c-0.3-0.7-1.2-0.9-1.8-0.6c-0.1,0-0.1,0.1-0.2,0.1 c-0.3,0.2-0.4,0.7-0.1,1c0.1,0.1,0.2,0.2,0.4,0.2c0.1,0,0.1,0,0-0.1C13.2,29.2,13,29,13,28.7c0-0.6,0.6-0.9,1.2-0.6 c0.4,0.1,0.7,0.5,0.6,0.9c0,0.6-0.5,1.2-1.1,1.2c-0.1,0-0.1,0-0.2,0c-0.4-0.1-0.8-0.3-1.1-0.6c-0.5-0.6-0.4-1.5,0.2-2 c0.1-0.1,0.2-0.1,0.3-0.2c0.7-0.3,1.5-0.2,2.2,0.2c0.8,0.5,1.1,1,1.8,2.5c0.2,0.4,0.4,0.9,0.6,1.3c0.5,0.8,1.3,1.4,2.3,1.4 c0.5,0,0.9-0.1,1.4-0.3c0.3-0.1,0.6-0.3,0.8-0.6C21.9,31.9,21.8,32,21.7,32L21.7,32z"></path> <path class="st1" d="M7.6,26.2c0.4-0.4,0.6-0.9,0.6-1.4c0-0.3,0-0.5-0.1-0.8c-0.3-0.5-0.8-1-1.3-1.3c-0.8-0.4-1.4-1.2-1.6-2 c-0.1-0.8,0.1-1.6,0.6-2.3c0.5-0.9,0.8-2,0.8-3c0.1-0.8,0.2-1.1,0.4-1.4c0.3-0.3,0.6-0.4,1-0.4c0.8,0,1.5-0.3,2.1-0.9 c0.4-0.3,0.6-0.9,0.6-1.4l0-0.4l-0.2-0.3c-0.9-1-7-9.1-7-9.1c0,0,5.6,9,5.9,9.4c0.3,0.4,0.2,0.7-0.3,1c-0.3,0.2-0.7,0.3-1.1,0.3 c-0.3,0-0.7-0.2-0.9-0.4c-0.2-0.2-3.8-5.4-3.8-5.4c-0.1,0,3.1,5.5,3.1,5.6c0,0.2-0.1,0.4-0.4,0.7c-0.6,0.7-0.9,1.6-0.9,2.6 c-0.2,1.5-0.7,2.6-2.1,4.4c-0.5,0.5-0.9,1.1-1.2,1.7c-0.2,0.5-0.4,1-0.4,1.5c0,0.6,0,1.3,0.2,1.9c0.2,0.6,0.5,1.2,0.9,1.8 C2.8,27,3,27.5,3.2,28c0,0.2,0,0.2,0.7,0C5.3,27.8,6.5,27.1,7.6,26.2L7.6,26.2z M3.7,23.8c-0.1,0.3-0.4,0.4-0.7,0.3 c0,0-0.1,0-0.1-0.1c-0.2-0.1-0.2-0.3,0-0.5c0.1-0.2,0.1-0.3-0.1-0.4c-0.1,0-0.2-0.1-0.2-0.2c0-0.3,0.5-0.4,0.8-0.2 C3.8,23,3.9,23.4,3.7,23.8L3.7,23.8z"></path> <path class="st1" d="M13.3,15.3c0-0.6-0.3-1.1-0.8-1.4c-0.4-0.2-0.8-0.2-1.2-0.1c-0.5,0.2-0.9,0.6-1,1.1c-0.1,0.3,0,0.7,0.1,1 c0.2,0.3,0.4,0.3,0.9,0.3C12.3,16.3,13.2,15.8,13.3,15.3 M12.5,14.7c-0.2,0.2-0.4,0.3-0.7,0.3c-0.4,0-0.8-0.3-0.8-0.5 c0-0.5,0.8-0.8,1.3-0.4C12.5,14.2,12.6,14.4,12.5,14.7C12.5,14.7,12.5,14.7,12.5,14.7"></path> </g> </g> </svg> 