<?xml version="1.0" encoding="UTF-8"?> <svg xmlns="http://www.w3.org/2000/svg" width="36.483" height="34.329" viewBox="0 0 36.483 34.329"> <path d="M1094.357,898.525l-32.4,13.842s-1.534.57-1.413,1.626,1.372,1.538,1.372,1.538l8.15,2.989h0l19.57-13.535s1.13-.747,1.09,0c0,0,.2.132-.4.746s-15.373,15.073-15.373,15.073l-1.06,9.851,0,.033a.866.866,0,0,0,.863-.127l5.266-5.23,8.209,6.855a2.1,2.1,0,0,0,3.027-1.142l5.77-31.684C1097.021,897.251,1094.357,898.525,1094.357,898.525Z" transform="translate(-1060.537 -898.144)" fill="#fff"></path> </svg> 