<?xml version="1.0" encoding="UTF-8"?> <!-- Generator: Adobe Illustrator 26.0.3, SVG Export Plug-In . SVG Version: 6.00 Build 0) --> <svg xmlns="http://www.w3.org/2000/svg" xmlns:xlink="http://www.w3.org/1999/xlink" id="Layer_1" x="0px" y="0px" viewBox="0 0 29.7 34.3" style="enable-background:new 0 0 29.7 34.3;" xml:space="preserve"> <style type="text/css"> .st0{fill-rule:evenodd;clip-rule:evenodd;fill:#FFFFFF;} </style> <path class="st0" d="M11.3,2.9c-1.9,1-3.5,1.8-3.5,1.9c0,0.1,4.6,2.4,4.7,2.4c0.4-0.2,0.8-0.3,1.2-0.5l1.1-0.5L16,6.7l1.2,0.6 L19,6.5C21.8,5.2,22.1,5,22.1,5C22,4.9,21,4.4,18.2,2.9c-1.3-0.7-2.6-1.4-2.9-1.5c-0.2-0.1-0.3-0.2-0.5-0.3 C14.8,1.1,13.2,2,11.3,2.9L11.3,2.9z M3,7.3l-2,1v4.5c0,2.5,0,4.5,0.1,4.5c0,0,1-0.4,2.2-0.9l2.1-0.9v-4.8l1,0.6 c0.8,0.4,1.6,0.9,2.4,1.3l1.4,0.7l0.6-0.3c0.4-0.2,0.8-0.3,1.1-0.5c0.3-0.1,1-0.5,1.6-0.7c0.4-0.2,0.8-0.4,1.2-0.6 c0.1-0.1-1.1-0.8-4.6-2.5C7.4,7.3,5.2,6.2,5.1,6.2C4.4,6.6,3.7,6.9,3,7.3z M22.4,7.6C21.1,8.2,20,8.7,20,8.7c0,0,0.7,0.5,1.6,1 c0.6,0.3,1.1,0.6,1.6,1c-0.6,0.3-1.2,0.6-1.8,0.9c-1,0.4-3.4,1.6-5.5,2.5l-6.8,3.1l-3.4,1.6c-3.5,1.6-4.5,2-4.6,2.1 C1.1,20.9,1,21.3,1,23.5l0,2.7l1.8,0.9L4.5,28L7,26.9c1.4-0.6,2.5-1.1,2.5-1.2c-0.2-0.2-0.3-0.3-0.6-0.4c-0.3-0.2-0.9-0.5-1.4-0.8 c-0.3-0.2-0.7-0.4-1-0.6c-0.1,0-0.2-0.1-0.2-0.1c0,0,1.1-0.6,2.4-1.1c2.6-1.2,4.5-2,8.7-4l5.6-2.6c1.7-0.7,3.6-1.6,4.3-1.9l1.3-0.6 l0-2.7l0-2.7l-1.8-0.9c-1-0.5-1.8-0.9-1.9-0.9S23.8,7,22.4,7.6z M28.1,17.3c-0.3,0.1-0.8,0.4-1.2,0.5c-0.4,0.2-1.1,0.5-1.6,0.7 l-0.9,0.4l0,2.4c0,0.8,0,1.6-0.1,2.3c-0.1,0-1.8-0.9-3.5-1.8c-1.2-0.7-1.3-0.7-1.6-0.5c-0.2,0.1-1.2,0.5-2.2,1c-1,0.5-1.9,0.9-2,0.9 s2.1,1.2,4.7,2.5l4.8,2.5l2-1.1c0.7-0.4,1.4-0.7,2.1-1.2c0.1-0.1,0.1-9,0-9C28.5,17.1,28.3,17.2,28.1,17.3L28.1,17.3z M16.9,27.6 l-1.1,0.5c-1.1,0.5-0.9,0.5-2.1-0.2c-0.8-0.4-1.2-0.6-1.4-0.5c-0.1,0-1.1,0.5-2.3,1C9,29,8,29.4,7.9,29.4c-0.5,0,0.3,0.5,3.3,2 l3.5,1.8l1.5-0.7c0.8-0.4,2.5-1.2,3.7-1.8s2.2-1.1,2.2-1.1c0,0-1-0.5-2.2-1.2l-2.2-1.1L16.9,27.6L16.9,27.6z"></path> </svg> 