<?xml version="1.0" encoding="UTF-8"?> <!-- Generator: Adobe Illustrator 26.0.3, SVG Export Plug-In . SVG Version: 6.00 Build 0) --> <svg xmlns="http://www.w3.org/2000/svg" xmlns:xlink="http://www.w3.org/1999/xlink" id="Layer_1" x="0px" y="0px" viewBox="0 0 43 34.3" style="enable-background:new 0 0 43 34.3;" xml:space="preserve"> <style type="text/css"> .st0{fill:#FFFFFF;} </style> <path class="st0" d="M41.1,5.2c-1.5,0.6-3,1.1-4.6,1.2c1.7-1,2.9-2.5,3.5-4.4C38.4,3,36.7,3.7,34.9,4c-1.5-1.6-3.6-2.5-5.9-2.5 c-4.4,0-8,3.5-8,7.9c0,0.6,0.1,1.2,0.2,1.8C14.8,10.9,8.8,7.9,4.6,3c-0.7,1.2-1.1,2.6-1.1,4c0,2.7,1.3,5.1,3.6,6.6 c-1.3,0-2.5-0.4-3.6-1c0,0,0,0.1,0,0.1c0,3.8,2.7,7,6.4,7.7c-1.2,0.3-2.4,0.4-3.6,0.1c1.1,3.2,4.1,5.4,7.5,5.5 c-2.9,2.2-6.4,3.4-10,3.4c-0.6,0-1.3,0-1.9-0.1c3.7,2.3,8,3.6,12.3,3.5c12.4,0.2,22.6-9.7,22.8-22.1c0-0.1,0-0.2,0-0.3 c0-0.3,0-0.7,0-1C38.6,8.2,40,6.8,41.1,5.2"></path> </svg> 